<svg width="155" height="55" viewBox="0 0 155 55" fill="none" xmlns="http://www.w3.org/2000/svg">
<rect width="155" height="55" rx="5" fill="#363636" fill-opacity="0.36"/>
<path fill-rule="evenodd" clip-rule="evenodd" d="M56.2604 26.934V17.0996H26.056V27.6537L41.1582 22.43L54.1797 26.934H48.6372C47.9888 26.934 47.3669 27.2058 46.9084 27.6897C46.4499 28.1735 46.1923 28.8297 46.1923 29.5139V50.5035C44.6436 51.2824 42.9508 51.7471 41.1582 51.7471C37.131 51.7471 33.6071 49.4017 31.0901 46.4167C28.5731 49.4017 25.0492 51.7471 21.022 51.7471H20.871L16.1138 33.9169C15.9124 33.2507 15.9879 32.5044 16.2648 31.8647C16.592 31.2251 17.1206 30.7454 17.775 30.5322L21.022 29.4128V17.0996C21.022 15.6859 21.5523 14.3301 22.4964 13.3304C23.4405 12.3308 24.7209 11.7692 26.056 11.7692H33.6071V3.77363L41.1582 2L48.7093 3.77363V11.7692H56.2604C57.5955 11.7692 58.8759 12.3308 59.82 13.3304C60.7641 14.3301 61.2944 15.6859 61.2944 17.0996V26.934H56.2604ZM57.182 44.8104C57.1362 44.4718 56.9647 44.1662 56.7053 43.9609L53.119 41.1231L56.7053 38.2853C56.9647 38.08 57.1362 37.7745 57.182 37.4358C57.2279 37.0971 57.1444 36.7531 56.9498 36.4794C56.7553 36.2057 56.4657 36.0248 56.1448 35.9764C55.8238 35.928 55.4978 36.0162 55.2384 36.2214L50.3486 40.0912C50.1968 40.2113 50.0736 40.3671 49.9887 40.5462C49.9038 40.7254 49.8596 40.9229 49.8596 41.1231C49.8596 41.3234 49.9038 41.5209 49.9887 41.7C50.0736 41.8791 50.1968 42.0349 50.3486 42.155L55.2384 46.0248C55.4978 46.2301 55.8238 46.3182 56.1448 46.2698C56.4657 46.2214 56.7553 46.0405 56.9498 45.7668C57.1444 45.4931 57.2279 45.1491 57.182 44.8104ZM60.8143 50.5073L65.7041 32.4484C65.7862 32.1219 65.7436 31.7745 65.5856 31.4808C65.4275 31.187 65.1665 30.9704 64.8588 30.8775C64.551 30.7846 64.221 30.8228 63.9396 30.9839C63.6582 31.145 63.4479 31.4161 63.3539 31.739L58.4641 49.7978C58.4164 49.9617 58.4002 50.1341 58.4163 50.3047C58.4325 50.4754 58.4807 50.6409 58.5582 50.7916C58.6357 50.9424 58.7409 51.0753 58.8677 51.1826C58.9945 51.2899 59.1402 51.3695 59.2965 51.4167C59.4527 51.4638 59.6163 51.4776 59.7777 51.4573C59.9391 51.437 60.095 51.3829 60.2363 51.2982C60.3777 51.2135 60.5016 51.1 60.6008 50.9641C60.7001 50.8283 60.7726 50.673 60.8143 50.5073Z" fill="#FA9A54"/>
<path d="M84.745 42V12" stroke="white" stroke-width="4" stroke-linecap="round"/>
<path fill-rule="evenodd" clip-rule="evenodd" d="M115.909 12.9266H115.125V16.8652H115.909V12.9266Z" fill="white"/>
<path fill-rule="evenodd" clip-rule="evenodd" d="M119.249 12.9266H118.465V16.8652H119.249V12.9266Z" fill="white"/>
<path fill-rule="evenodd" clip-rule="evenodd" d="M123.825 5.44296L123.021 4.10291L109.724 11.5866L110.528 12.9267L123.825 5.44296Z" fill="white"/>
<path fill-rule="evenodd" clip-rule="evenodd" d="M123.743 5.44296L124.547 4.10291L137.844 11.6072L137.04 12.9473L123.743 5.44296Z" fill="white"/>
<path fill-rule="evenodd" clip-rule="evenodd" d="M140.195 12.9472V11.401H103.745V12.9472H140.195Z" fill="white"/>
<path fill-rule="evenodd" clip-rule="evenodd" d="M127.825 34.9242V11.8752H129.412V36.0581C128.979 35.584 128.443 35.2335 127.825 34.9449V34.9242Z" fill="white"/>
<path fill-rule="evenodd" clip-rule="evenodd" d="M123.042 34.5325V2H124.629V34.718C124.176 34.5119 123.083 34.5325 123.042 34.5325Z" fill="white"/>
<path fill-rule="evenodd" clip-rule="evenodd" d="M107.93 37.7693C105.992 36.3674 104.693 34.1202 104.693 31.5844C104.693 30.2443 105.064 28.9043 105.745 27.7498H119.372C120.073 28.9043 120.424 30.2443 120.424 31.5844C120.424 32.7595 120.259 33.8522 119.784 34.8418C118.754 33.8728 117.228 33.4605 115.702 33.4605C112.981 33.4605 110.651 35.1098 110.033 37.5837C109.827 37.5837 109.682 37.5425 109.476 37.5425C108.961 37.5425 108.446 37.6456 107.93 37.7693Z" fill="white"/>
<path fill-rule="evenodd" clip-rule="evenodd" d="M114.611 18.5961H110.486V22.6378H114.611V18.5961Z" fill="white"/>
<path fill-rule="evenodd" clip-rule="evenodd" d="M109.972 18.5961H105.848V22.6378H109.972V18.5961Z" fill="white"/>
<path fill-rule="evenodd" clip-rule="evenodd" d="M109.972 23.1111H105.848V27.1528H109.972V23.1111Z" fill="white"/>
<path fill-rule="evenodd" clip-rule="evenodd" d="M114.611 23.1111H110.486V27.1528H114.611V23.1111Z" fill="white"/>
<path fill-rule="evenodd" clip-rule="evenodd" d="M119.249 23.1111H115.125V27.1528H119.249V23.1111Z" fill="white"/>
<path fill-rule="evenodd" clip-rule="evenodd" d="M119.249 16.4315H115.125V20.4732H119.249V16.4315Z" fill="white"/>
<path fill-rule="evenodd" clip-rule="evenodd" d="M110.713 38.3877C111.27 36.058 113.435 34.3057 116.012 34.3057C117.661 34.3057 119.145 35.0272 120.156 36.1611C121.021 35.5633 122.073 35.2334 123.227 35.2334C126.217 35.2334 128.649 37.6043 128.649 40.5318C128.649 41.1297 128.546 41.7069 128.361 42.2635C129.021 43.1294 129.433 44.2427 129.433 45.4178C129.433 48.3454 127 50.7162 124.011 50.7162C122.691 50.7162 121.475 50.2627 120.547 49.4999C119.558 50.8399 117.95 51.747 116.115 51.747C114.012 51.747 112.177 50.5719 111.27 48.8608C110.899 48.9432 110.528 48.9845 110.136 48.9845C107.147 48.9845 104.693 46.6136 104.693 43.6861C104.693 40.7586 107.126 38.3877 110.136 38.3877C110.322 38.3877 110.528 38.3877 110.713 38.3877Z" fill="white"/>
</svg>
